<svg width="0" height="0" class="hidden">
  <symbol version="1.0" xmlns="http://www.w3.org/2000/svg" preserveAspectRatio="xMidYMid meet" viewBox="0 0 35.000000 35.000000" id="card-chip">
    <g transform="translate(0.000000,35.000000) scale(0.100000,-0.100000)" stroke="none">
      <path d="M21 294 c-12 -15 -21 -38 -21 -51 0 -23 3 -24 53 -21 44 3 52 6 52
23 0 12 -9 22 -25 26 l-25 7 27 1 c36 1 53 -28 33 -55 -19 -25 -19 -83 -1 -90
24 -9 39 -59 26 -83 -10 -20 -8 -21 35 -21 43 0 45 1 35 21 -13 24 2 74 26 83
18 7 18 65 -1 90 -15 20 -5 56 17 56 7 0 6 -5 -2 -15 -23 -28 -4 -45 50 -45
46 0 50 2 50 24 0 13 -9 35 -21 50 -20 26 -22 26 -154 26 -132 0 -134 0 -154
-26z"></path>
      <path d="M0 175 c0 -35 0 -35 45 -35 45 0 45 0 45 35 0 35 0 35 -45 35 -45 0
-45 0 -45 -35z"></path>
      <path d="M260 175 c0 -35 0 -35 45 -35 45 0 45 0 45 35 0 35 0 35 -45 35 -45
0 -45 0 -45 -35z"></path>
      <path d="M0 106 c0 -38 37 -76 74 -76 38 0 56 15 56 46 0 37 -26 54 -81 54
-45 0 -49 -2 -49 -24z"></path>
      <path d="M236 114 c-19 -18 -21 -55 -4 -72 7 -7 27 -12 44 -12 37 0 74 38 74
76 0 22 -4 24 -49 24 -32 0 -55 -6 -65 -16z"></path>
    </g>
  </symbol>
  <symbol xmlns="http://www.w3.org/2000/svg" viewBox="0 0 44 30" id="card-circles">
    <circle cx="15" cy="15" r="15" fill-opacity="0.5"></circle>
    <circle cx="29" cy="15" r="15" fill-opacity="0.5"></circle>
  </symbol>
</svg>
