<svg width="0" height="0" class="hidden">
  <symbol version="1.0" xmlns="http://www.w3.org/2000/svg" preserveAspectRatio="xMidYMid meet" viewBox="0 0 512.000000 512.000000" id="transaction">
    <g transform="translate(0.000000,512.000000) scale(0.100000,-0.100000)" stroke="none">
      <path d="M2325 4949 c-221 -21 -493 -92 -714 -186 -551 -235 -1015 -696 -1250
-1245 -393 -915 -196 -1954 504 -2653 937 -938 2455 -938 3390 -1 938 940 938
2451 0 3392 -505 507 -1211 760 -1930 693z m635 -1749 l720 0 0 -240 0 -240
-1120 0 -1120 0 397 477 398 477 3 -237 2 -237 720 0z m323 -1277 l-398 -477
-3 237 -2 237 -720 0 -720 0 0 240 0 240 1120 0 1120 0 -397 -477z"></path>
    </g>
  </symbol>
  <symbol fill="none" xmlns="http://www.w3.org/2000/svg" viewBox="0 0 30 30" id="arrow-up">
    <circle cx="15" cy="15" r="14" stroke="currentColor" stroke-width="2"></circle>
    <path d="M15.5303 9.96967C15.2374 9.67678 14.7626 9.67678 14.4697 9.96967L9.6967 14.7426C9.40381 15.0355 9.40381 15.5104 9.6967 15.8033C9.98959 16.0962 10.4645 16.0962 10.7574 15.8033L15 11.5607L19.2426 15.8033C19.5355 16.0962 20.0104 16.0962 20.3033 15.8033C20.5962 15.5104 20.5962 15.0355 20.3033 14.7426L15.5303 9.96967ZM15.75 21L15.75 10.5L14.25 10.5L14.25 21L15.75 21Z" fill="currentColor"></path>
  </symbol>
</svg>