<svg width="0" height="0" class="hidden">
  <symbol version="1.0" xmlns="http://www.w3.org/2000/svg" preserveAspectRatio="xMidYMid meet" viewBox="0 0 512.000000 512.000000" id="transaction">
    <g transform="translate(0.000000,512.000000) scale(0.100000,-0.100000)" stroke="none">
      <path d="M2325 4949 c-221 -21 -493 -92 -714 -186 -551 -235 -1015 -696 -1250
-1245 -393 -915 -196 -1954 504 -2653 937 -938 2455 -938 3390 -1 938 940 938
2451 0 3392 -505 507 -1211 760 -1930 693z m635 -1749 l720 0 0 -240 0 -240
-1120 0 -1120 0 397 477 398 477 3 -237 2 -237 720 0z m323 -1277 l-398 -477
-3 237 -2 237 -720 0 -720 0 0 240 0 240 1120 0 1120 0 -397 -477z"></path>
    </g>
  </symbol>
</svg>